<svg xmlns="http://www.w3.org/2000/svg" viewBox="0 0 960 540" role="img" aria-label="A stack of building blocks with a single pill on top, and two characters beside it">
<defs><pattern id="dots" width="22" height="22" patternUnits="userSpaceOnUse"><circle cx="2" cy="2" r="2" fill="#1c1917" opacity=".08"/></pattern></defs>
<rect width="960" height="540" fill="#d0e4de"/><rect width="960" height="540" fill="url(#dots)"/><rect x="330" y="330" width="150" height="90" rx="18" fill="#8fbfe3" stroke="#1c1917" stroke-width="5"/><rect x="500" y="330" width="150" height="90" rx="18" fill="#9be5b5" stroke="#1c1917" stroke-width="5"/><rect x="415" y="230" width="150" height="90" rx="18" fill="#f5cf6d" stroke="#1c1917" stroke-width="5"/><g transform="translate(490 160) rotate(-20)"><rect x="-60" y="-24" width="120" height="48" rx="24" fill="#fdfbf7" stroke="#1c1917" stroke-width="5"/><path d="M0 -24 V24" stroke="#1c1917" stroke-width="5"/><path d="M0 -24 H60 A24 24 0 0 1 60 24 H0 Z" fill="#d96b52"/></g><g transform="translate(89.99999999999999 230.0) scale(2.2)"><ellipse cx="50" cy="96" rx="30" ry="4.5" fill="#000" opacity=".12"/>
<path d="M50 16 C68 16, 78 28, 76 50 C74 64, 82 78, 76 90 C68 98, 32 98, 24 90 C18 78, 26 64, 24 50 C22 28, 32 16, 50 16 Z" fill="#d96b52" stroke="#1c1917" stroke-width="4.5" stroke-linejoin="round"/><circle cx="43" cy="46" r="3.5" fill="#1c1917"/><circle cx="57" cy="46" r="3.5" fill="#1c1917"/><circle cx="44" cy="44.5" r="1.3" fill="#fff"/><circle cx="58" cy="44.5" r="1.3" fill="#fff"/><path d="M45 56 Q50 62 55 56" fill="none" stroke="#1c1917" stroke-linecap="round" stroke-width="3"/></g><g transform="translate(690.0 230.0) scale(2.0)"><ellipse cx="50" cy="96" rx="30" ry="4.5" fill="#000" opacity=".12"/>
<path d="M50 16 C68 16, 78 28, 76 50 C74 64, 82 78, 76 90 C68 98, 32 98, 24 90 C18 78, 26 64, 24 50 C22 28, 32 16, 50 16 Z" fill="#f5cf6d" stroke="#1c1917" stroke-width="4.5" stroke-linejoin="round"/><circle cx="43" cy="46" r="3.5" fill="#1c1917"/><circle cx="57" cy="46" r="3.5" fill="#1c1917"/><circle cx="44" cy="44.5" r="1.3" fill="#fff"/><circle cx="58" cy="44.5" r="1.3" fill="#fff"/><path d="M46 57 Q50 60 54 57" fill="none" stroke="#1c1917" stroke-linecap="round" stroke-width="3"/></g><path transform="translate(110 110) scale(1.2)" d="M0 -14 L3 -3 L14 0 L3 3 L0 14 L-3 3 L-14 0 L-3 -3 Z" fill="#f5cf6d" stroke="#1c1917" stroke-width="2" stroke-linejoin="round"/><path transform="translate(870 120) scale(1)" d="M0 -14 L3 -3 L14 0 L3 3 L0 14 L-3 3 L-14 0 L-3 -3 Z" fill="#f2a7c8" stroke="#1c1917" stroke-width="2" stroke-linejoin="round"/></svg>